<?xml version="1.0" encoding="utf-8"?>
<!-- Generator: Adobe Illustrator 16.0.0, SVG Export Plug-In . SVG Version: 6.00 Build 0)  -->
<!DOCTYPE svg PUBLIC "-//W3C//DTD SVG 1.1//EN" "http://www.w3.org/Graphics/SVG/1.1/DTD/svg11.dtd">
<svg version="1.1" id="Layer_1" xmlns="http://www.w3.org/2000/svg" xmlns:xlink="http://www.w3.org/1999/xlink" x="0px" y="0px"
	 width="122.468px" height="122.306px" viewBox="0 0 122.468 122.306" enable-background="new 0 0 122.468 122.306"
	 xml:space="preserve">
<g>
	<circle fill-rule="evenodd" clip-rule="evenodd" fill="#FF7C43" cx="62.114" cy="28.907" r="3.67"/>
	<path fill-rule="evenodd" clip-rule="evenodd" fill="#FF7C43" d="M74.744,31.474c-0.606,1.938-2.666,3.015-4.599,2.409
		c-1.937-0.604-3.016-2.664-2.41-4.6c0.606-1.934,2.666-3.014,4.602-2.408C74.271,27.48,75.35,29.542,74.744,31.474z"/>
	<path fill-rule="evenodd" clip-rule="evenodd" fill="#FF7C43" d="M82.487,36.373c-1.104,1.702-3.376,2.187-5.079,1.084
		c-1.702-1.102-2.189-3.375-1.085-5.077c1.103-1.702,3.376-2.19,5.078-1.086C83.104,32.399,83.59,34.671,82.487,36.373z"/>
	<path fill-rule="evenodd" clip-rule="evenodd" fill="#FF7C43" d="M88.5,43.463c-1.586,1.257-3.895,0.991-5.159-0.597
		c-1.257-1.59-0.991-3.9,0.599-5.157c1.587-1.261,3.902-0.998,5.156,0.592C90.357,39.893,90.09,42.203,88.5,43.463z"/>
	<path fill-rule="evenodd" clip-rule="evenodd" fill="#FF7C43" d="M92.419,51.869c-1.859,0.814-4.023-0.023-4.843-1.881
		c-0.816-1.856,0.024-4.026,1.88-4.838c1.853-0.821,4.024,0.019,4.841,1.875C95.113,48.881,94.272,51.048,92.419,51.869z"/>
	<path fill-rule="evenodd" clip-rule="evenodd" fill="#FF7C43" d="M93.453,61.111c-2.01,0.242-3.842-1.192-4.08-3.208
		c-0.241-2.014,1.191-3.842,3.205-4.078c2.014-0.249,3.842,1.19,4.083,3.203C96.903,59.042,95.466,60.87,93.453,61.111z"/>
	<path fill-rule="evenodd" clip-rule="evenodd" fill="#FF7C43" d="M92.052,70.19c-2.007-0.315-3.369-2.199-3.051-4.203
		c0.315-2,2.196-3.367,4.199-3.051c2.003,0.319,3.369,2.203,3.051,4.203C95.932,69.143,94.052,70.513,92.052,70.19z"/>
	<circle fill-rule="evenodd" clip-rule="evenodd" fill="#FF7C43" cx="90.7" cy="75.651" r="3.672"/>
	<path fill-rule="evenodd" clip-rule="evenodd" fill="#FF7C43" d="M82.049,85.51c-1.502-1.355-1.625-3.678-0.273-5.184
		c1.359-1.51,3.677-1.632,5.187-0.273c1.506,1.355,1.632,3.678,0.273,5.184C85.881,86.746,83.559,86.865,82.049,85.51z"/>
	<path fill-rule="evenodd" clip-rule="evenodd" fill="#FF7C43" d="M74.106,90.339c-0.995-1.769-0.368-4.003,1.401-5.001
		c1.765-0.995,4.003-0.368,4.998,1.401c0.995,1.765,0.375,4.006-1.397,4.998C77.339,92.734,75.101,92.104,74.106,90.339z"/>
	<path fill-rule="evenodd" clip-rule="evenodd" fill="#FF7C43" d="M65.189,92.886c-0.515-1.962,0.655-3.969,2.62-4.487
		c1.958-0.515,3.972,0.659,4.479,2.617c0.522,1.961-0.651,3.971-2.613,4.486C67.714,96.017,65.708,94.847,65.189,92.886z"/>
	<path fill-rule="evenodd" clip-rule="evenodd" fill="#FF7C43" d="M55.897,92.458c0.077-2.027,1.783-3.607,3.811-3.526
		c2.028,0.073,3.611,1.779,3.527,3.803c-0.073,2.028-1.783,3.611-3.807,3.53C57.4,96.188,55.821,94.482,55.897,92.458z"/>
	<path fill-rule="evenodd" clip-rule="evenodd" fill="#FF7C43" d="M47.606,90.469c0.583-1.94,2.634-3.04,4.574-2.455
		c1.942,0.581,3.043,2.63,2.457,4.57c-0.585,1.944-2.63,3.047-4.574,2.459C48.123,94.458,47.023,92.409,47.606,90.469z"/>
	<path fill-rule="evenodd" clip-rule="evenodd" fill="#FF7C43" d="M39.854,85.338c1.175-1.653,3.466-2.038,5.119-0.865
		c1.655,1.177,2.04,3.468,0.863,5.117c-1.17,1.656-3.467,2.045-5.117,0.872C39.064,89.281,38.679,86.991,39.854,85.338z"/>
	<path fill-rule="evenodd" clip-rule="evenodd" fill="#FF7C43" d="M33.749,78.358c1.555-1.303,3.87-1.104,5.173,0.455
		c1.303,1.555,1.1,3.87-0.455,5.169c-1.552,1.307-3.87,1.107-5.173-0.452C31.991,81.976,32.194,79.664,33.749,78.358z"/>
	<path fill-rule="evenodd" clip-rule="evenodd" fill="#FF7C43" d="M30.177,69.77c1.867-0.795,4.024,0.074,4.815,1.944
		c0.795,1.863-0.077,4.021-1.94,4.809c-1.867,0.802-4.026-0.073-4.819-1.937C27.441,72.719,28.312,70.562,30.177,69.77z"/>
	<path fill-rule="evenodd" clip-rule="evenodd" fill="#FF7C43" d="M28.995,60.656c2.012-0.252,3.847,1.177,4.1,3.188
		c0.254,2.014-1.175,3.846-3.184,4.098c-2.014,0.256-3.849-1.17-4.101-3.184C25.557,62.745,26.982,60.908,28.995,60.656z"/>
	<path fill-rule="evenodd" clip-rule="evenodd" fill="#FF7C43" d="M30.431,51.449c1.995,0.362,3.322,2.27,2.961,4.266
		c-0.359,1.993-2.269,3.32-4.266,2.963c-1.993-0.36-3.32-2.273-2.961-4.266C26.524,52.416,28.436,51.09,30.431,51.449z"/>
	<path fill-rule="evenodd" clip-rule="evenodd" fill="#FF7C43" d="M34.327,43.159c1.826,0.883,2.59,3.079,1.706,4.903
		c-0.879,1.825-3.075,2.588-4.902,1.708c-1.825-0.881-2.593-3.077-1.707-4.902C30.306,43.04,32.502,42.28,34.327,43.159z"/>
	<path fill-rule="evenodd" clip-rule="evenodd" fill="#FF7C43" d="M40.614,36.307c1.443,1.42,1.467,3.742,0.045,5.192
		c-1.418,1.448-3.744,1.471-5.19,0.051c-1.446-1.417-1.475-3.746-0.053-5.192C36.838,34.907,39.164,34.89,40.614,36.307z"/>
	<path fill-rule="evenodd" clip-rule="evenodd" fill="#FF7C43" d="M48.464,31.375c1.042,1.741,0.478,3.993-1.262,5.039
		c-1.739,1.041-3.998,0.479-5.033-1.261c-1.047-1.739-0.483-4,1.257-5.041C45.167,29.072,47.418,29.637,48.464,31.375z"/>
	<path fill-rule="evenodd" clip-rule="evenodd" fill="#FF7C43" d="M57.509,29.199c0.49,1.966-0.706,3.958-2.679,4.448
		c-1.965,0.49-3.961-0.708-4.443-2.67c-0.499-1.967,0.702-3.964,2.669-4.453C55.025,26.032,57.015,27.229,57.509,29.199z"/>
</g>
<g opacity="0.8">
	<circle fill-rule="evenodd" clip-rule="evenodd" fill="#FF7C43" cx="67.332" cy="19.973" r="2.832"/>
	<path fill-rule="evenodd" clip-rule="evenodd" fill="#FF7C43" d="M81.532,24.245c-0.469,1.492-2.059,2.324-3.551,1.857
		c-1.492-0.467-2.326-2.057-1.856-3.551c0.462-1.491,2.056-2.323,3.548-1.856C81.164,21.162,81.998,22.75,81.532,24.245z"/>
	<path fill-rule="evenodd" clip-rule="evenodd" fill="#FF7C43" d="M90.911,31.219c-0.852,1.312-2.605,1.685-3.916,0.833
		c-1.313-0.847-1.688-2.604-0.837-3.917c0.848-1.311,2.603-1.684,3.916-0.835C91.388,28.151,91.762,29.904,90.911,31.219z"/>
	<path fill-rule="evenodd" clip-rule="evenodd" fill="#FF7C43" d="M98.069,41.259c-1.222,0.97-3.005,0.763-3.979-0.461
		c-0.97-1.224-0.767-3.008,0.459-3.982c1.226-0.97,3.009-0.762,3.982,0.462S99.299,40.283,98.069,41.259z"/>
	<path fill-rule="evenodd" clip-rule="evenodd" fill="#FF7C43" d="M102.182,52.139c-1.426,0.63-3.1-0.018-3.73-1.45
		c-0.634-1.425,0.018-3.103,1.446-3.733c1.433-0.629,3.107,0.021,3.733,1.454C104.266,49.834,103.614,51.508,102.182,52.139z"/>
	<path fill-rule="evenodd" clip-rule="evenodd" fill="#FF7C43" d="M102.661,64.205c-1.552,0.189-2.963-0.918-3.148-2.472
		c-0.192-1.55,0.921-2.964,2.473-3.154c1.552-0.182,2.963,0.925,3.148,2.476C105.323,62.608,104.213,64.019,102.661,64.205z"/>
	<path fill-rule="evenodd" clip-rule="evenodd" fill="#FF7C43" d="M100.003,75.678c-1.545-0.249-2.599-1.695-2.354-3.243
		c0.245-1.544,1.698-2.599,3.247-2.35c1.541,0.245,2.595,1.695,2.35,3.24S101.548,75.923,100.003,75.678z"/>
	<path fill-rule="evenodd" clip-rule="evenodd" fill="#FF7C43" d="M94.28,84.851c-1.401-0.694-1.972-2.396-1.275-3.793
		c0.694-1.401,2.396-1.976,3.797-1.278c1.401,0.697,1.972,2.396,1.278,3.796C97.383,84.974,95.681,85.551,94.28,84.851z"/>
	<path fill-rule="evenodd" clip-rule="evenodd" fill="#FF7C43" d="M85.637,94.405c-1.163-1.051-1.254-2.841-0.21-4.003
		c1.044-1.163,2.84-1.258,4.003-0.21c1.162,1.043,1.254,2.833,0.21,3.999C88.593,95.357,86.806,95.449,85.637,94.405z"/>
	<path fill-rule="evenodd" clip-rule="evenodd" fill="#FF7C43" d="M74.597,99.896c-0.764-1.362-0.28-3.089,1.082-3.855
		c1.359-0.771,3.089-0.287,3.86,1.075c0.763,1.362,0.28,3.093-1.083,3.859C77.094,101.746,75.368,101.263,74.597,99.896z"/>
	<path fill-rule="evenodd" clip-rule="evenodd" fill="#FF7C43" d="M63.208,102.25c-0.397-1.513,0.504-3.064,2.018-3.46
		c1.509-0.402,3.061,0.504,3.46,2.018c0.396,1.513-0.504,3.061-2.021,3.46C65.155,104.667,63.607,103.764,63.208,102.25z"/>
	<path fill-rule="evenodd" clip-rule="evenodd" fill="#FF7C43" d="M51.214,100.825c0.062-1.562,1.378-2.784,2.94-2.722
		c1.56,0.056,2.783,1.377,2.725,2.942c-0.061,1.559-1.38,2.773-2.94,2.714C52.375,103.707,51.156,102.391,51.214,100.825z"/>
	<path fill-rule="evenodd" clip-rule="evenodd" fill="#FF7C43" d="M40.919,97.379c0.45-1.496,2.033-2.347,3.529-1.895
		c1.497,0.451,2.348,2.031,1.896,3.53c-0.452,1.495-2.031,2.343-3.53,1.895C41.316,100.457,40.467,98.878,40.919,97.379z"/>
	<path fill-rule="evenodd" clip-rule="evenodd" fill="#FF7C43" d="M31.246,89.733c0.904-1.271,2.676-1.569,3.947-0.666
		c1.275,0.907,1.576,2.676,0.669,3.951c-0.907,1.274-2.676,1.572-3.949,0.665C30.636,92.78,30.338,91.012,31.246,89.733z"/>
	<path fill-rule="evenodd" clip-rule="evenodd" fill="#FF7C43" d="M24.262,80.431c1.198-1.005,2.984-0.848,3.989,0.35
		c1.005,1.198,0.848,2.987-0.35,3.996c-1.198,0.998-2.986,0.841-3.989-0.357C22.903,83.226,23.061,81.436,24.262,80.431z"/>
	<path fill-rule="evenodd" clip-rule="evenodd" fill="#FF7C43" d="M20.441,68.975c1.436-0.609,3.103,0.06,3.714,1.499
		c0.615,1.436-0.06,3.103-1.501,3.716c-1.436,0.609-3.1-0.06-3.71-1.499C18.327,71.255,18.998,69.591,20.441,68.975z"/>
	<circle fill-rule="evenodd" clip-rule="evenodd" fill="#FF7C43" cx="20.147" cy="60.03" r="2.832"/>
	<path fill-rule="evenodd" clip-rule="evenodd" fill="#FF7C43" d="M22.62,45.409c1.537,0.277,2.562,1.753,2.282,3.291
		c-0.279,1.538-1.75,2.562-3.291,2.284c-1.538-0.277-2.559-1.75-2.284-3.289C19.606,46.155,21.077,45.13,22.62,45.409z"/>
	<path fill-rule="evenodd" clip-rule="evenodd" fill="#FF7C43" d="M28.37,35.231c1.41,0.681,2,2.373,1.317,3.784
		c-0.678,1.408-2.375,2-3.782,1.319c-1.408-0.681-1.995-2.375-1.315-3.784C25.267,35.138,26.959,34.55,28.37,35.231z"/>
	<path fill-rule="evenodd" clip-rule="evenodd" fill="#FF7C43" d="M37.441,26.877c1.115,1.096,1.131,2.889,0.039,4.007
		c-1.093,1.117-2.89,1.133-4.009,0.04c-1.112-1.095-1.129-2.887-0.037-4.007C34.527,25.798,36.322,25.781,37.441,26.877z"/>
	<path fill-rule="evenodd" clip-rule="evenodd" fill="#FF7C43" d="M47.724,21.442c0.805,1.341,0.371,3.081-0.97,3.882
		c-1.338,0.808-3.085,0.371-3.888-0.97c-0.802-1.34-0.368-3.081,0.976-3.884C45.18,19.665,46.922,20.098,47.724,21.442z"/>
	<path fill-rule="evenodd" clip-rule="evenodd" fill="#FF7C43" d="M59.639,19.468c0.378,1.516-0.542,3.055-2.062,3.431
		c-1.513,0.383-3.056-0.543-3.436-2.063c-0.375-1.513,0.55-3.051,2.065-3.429C57.721,17.022,59.261,17.948,59.639,19.468z"/>
</g>
<g opacity="0.5">
	<circle fill-rule="evenodd" clip-rule="evenodd" fill="#FF7C43" cx="73.903" cy="12.679" r="2.082"/>
	<circle fill-rule="evenodd" clip-rule="evenodd" fill="#FF7C43" cx="87.24" cy="18.393" r="2.083"/>
	<path fill-rule="evenodd" clip-rule="evenodd" fill="#FF7C43" d="M99.7,28.243c-0.627,0.965-1.916,1.24-2.883,0.614
		c-0.963-0.627-1.239-1.916-0.616-2.882c0.631-0.966,1.916-1.242,2.883-0.615S100.327,27.275,99.7,28.243z"/>
	<path fill-rule="evenodd" clip-rule="evenodd" fill="#FF7C43" d="M107.31,41.242c-0.9,0.714-2.21,0.561-2.924-0.34
		c-0.715-0.902-0.564-2.213,0.336-2.924c0.903-0.714,2.213-0.565,2.928,0.336C108.365,39.214,108.213,40.527,107.31,41.242z"/>
	<path fill-rule="evenodd" clip-rule="evenodd" fill="#FF7C43" d="M111.1,54.451c-1.055,0.464-2.284-0.014-2.746-1.063
		c-0.462-1.054,0.011-2.283,1.064-2.746c1.055-0.466,2.283,0.01,2.746,1.063C112.626,52.757,112.151,53.988,111.1,54.451z"/>
	<path fill-rule="evenodd" clip-rule="evenodd" fill="#FF7C43" d="M110.48,69.009c-1.142,0.137-2.179-0.679-2.315-1.821
		c-0.137-1.138,0.676-2.178,1.818-2.312c1.145-0.14,2.178,0.673,2.318,1.818C112.438,67.832,111.622,68.873,110.48,69.009z"/>
	<path fill-rule="evenodd" clip-rule="evenodd" fill="#FF7C43" d="M106.175,82.433c-1.135-0.182-1.908-1.247-1.729-2.381
		c0.182-1.138,1.246-1.912,2.385-1.73c1.138,0.178,1.912,1.247,1.73,2.381C108.378,81.838,107.314,82.615,106.175,82.433z"/>
	<path fill-rule="evenodd" clip-rule="evenodd" fill="#FF7C43" d="M98.117,93.137c-1.029-0.508-1.45-1.762-0.936-2.788
		c0.512-1.033,1.762-1.454,2.795-0.942c1.03,0.515,1.45,1.762,0.936,2.791C100.4,93.23,99.15,93.651,98.117,93.137z"/>
	<path fill-rule="evenodd" clip-rule="evenodd" fill="#FF7C43" d="M87.081,103.408c-0.854-0.771-0.925-2.087-0.154-2.941
		c0.771-0.852,2.083-0.925,2.942-0.154c0.854,0.768,0.925,2.084,0.154,2.942C89.252,104.109,87.935,104.179,87.081,103.408z"/>
	<path fill-rule="evenodd" clip-rule="evenodd" fill="#FF7C43" d="M73.047,108.883c-0.564-1.002-0.207-2.27,0.795-2.833
		c1.001-0.564,2.273-0.214,2.837,0.791c0.563,1.005,0.21,2.273-0.792,2.837C74.882,110.241,73.611,109.888,73.047,108.883z"/>
	<path fill-rule="evenodd" clip-rule="evenodd" fill="#FF7C43" d="M59.407,110.55c-0.294-1.113,0.373-2.248,1.483-2.543
		c1.112-0.294,2.252,0.372,2.542,1.481c0.294,1.114-0.371,2.252-1.483,2.547C60.842,112.329,59.696,111.664,59.407,110.55z"/>
	<path fill-rule="evenodd" clip-rule="evenodd" fill="#FF7C43" d="M45.127,107.653c0.045-1.148,1.012-2.042,2.164-2.003
		c1.146,0.045,2.042,1.012,1.997,2.16c-0.044,1.152-1.009,2.046-2.158,2.004C45.981,109.772,45.081,108.802,45.127,107.653z"/>
	<circle fill-rule="evenodd" clip-rule="evenodd" fill="#FF7C43" cx="35.273" cy="103.053" r="2.083"/>
	<path fill-rule="evenodd" clip-rule="evenodd" fill="#FF7C43" d="M22.344,92.089c0.667-0.935,1.965-1.152,2.903-0.49
		c0.938,0.669,1.161,1.972,0.492,2.903c-0.669,0.938-1.965,1.159-2.903,0.494C21.899,94.331,21.677,93.027,22.344,92.089z"/>
	<path fill-rule="evenodd" clip-rule="evenodd" fill="#FF7C43" d="M15.024,80.461c0.883-0.743,2.196-0.624,2.935,0.256
		c0.739,0.882,0.623,2.196-0.259,2.931c-0.883,0.743-2.192,0.63-2.933-0.255C14.028,82.514,14.144,81.201,15.024,80.461z"/>
	<path fill-rule="evenodd" clip-rule="evenodd" fill="#FF7C43" d="M11.561,66.309c1.058-0.452,2.28,0.045,2.733,1.1
		c0.45,1.058-0.043,2.284-1.101,2.729c-1.062,0.455-2.284-0.039-2.734-1.096C10.009,67.983,10.503,66.757,11.561,66.309z"/>
	<path fill-rule="evenodd" clip-rule="evenodd" fill="#FF7C43" d="M11.953,52.214c1.142-0.142,2.182,0.666,2.325,1.807
		c0.144,1.142-0.667,2.182-1.807,2.324c-1.144,0.145-2.182-0.662-2.329-1.808C10.002,53.4,10.811,52.358,11.953,52.214z"/>
	<path fill-rule="evenodd" clip-rule="evenodd" fill="#FF7C43" d="M16.593,38.288c1.131,0.201,1.883,1.285,1.681,2.415
		c-0.207,1.135-1.289,1.888-2.422,1.683c-1.133-0.205-1.886-1.285-1.683-2.42C14.376,38.834,15.458,38.079,16.593,38.288z"/>
	<path fill-rule="evenodd" clip-rule="evenodd" fill="#FF7C43" d="M24.444,26.749c1.037,0.502,1.469,1.745,0.968,2.782
		c-0.5,1.033-1.744,1.469-2.781,0.969c-1.039-0.502-1.471-1.746-0.97-2.782C22.16,26.682,23.407,26.247,24.444,26.749z"/>
	<path fill-rule="evenodd" clip-rule="evenodd" fill="#FF7C43" d="M36.394,17.578c0.821,0.807,0.833,2.123,0.03,2.944
		c-0.809,0.822-2.125,0.838-2.945,0.03c-0.821-0.809-0.833-2.123-0.031-2.945C34.252,16.785,35.572,16.771,36.394,17.578z"/>
	<path fill-rule="evenodd" clip-rule="evenodd" fill="#FF7C43" d="M49.032,12.174c0.588,0.99,0.266,2.262-0.716,2.857
		c-0.986,0.591-2.268,0.273-2.854-0.712c-0.594-0.992-0.275-2.269,0.712-2.862C47.158,10.867,48.44,11.188,49.032,12.174z"/>
	<path fill-rule="evenodd" clip-rule="evenodd" fill="#FF7C43" d="M63.549,10.979c0.28,1.114-0.399,2.241-1.515,2.525
		c-1.116,0.278-2.247-0.403-2.52-1.52c-0.28-1.118,0.396-2.245,1.513-2.525C62.141,9.184,63.276,9.861,63.549,10.979z"/>
</g>
<g opacity="0.4">
	<path fill-rule="evenodd" clip-rule="evenodd" fill="#FF7C43" d="M82.057,7.427c0,0.823-0.669,1.491-1.492,1.491
		c-0.827,0-1.492-0.668-1.492-1.491c0-0.827,0.666-1.494,1.492-1.494C81.388,5.933,82.057,6.6,82.057,7.427z"/>
	<path fill-rule="evenodd" clip-rule="evenodd" fill="#FF7C43" d="M96.574,15.845c-0.245,0.785-1.082,1.222-1.866,0.977
		c-0.788-0.246-1.227-1.082-0.981-1.868c0.245-0.79,1.083-1.228,1.871-0.98C96.381,14.219,96.823,15.056,96.574,15.845z"/>
	<path fill-rule="evenodd" clip-rule="evenodd" fill="#FF7C43" d="M107.613,27.191c-0.448,0.689-1.369,0.884-2.062,0.438
		c-0.69-0.45-0.89-1.375-0.441-2.063c0.448-0.694,1.373-0.889,2.062-0.44C107.866,25.571,108.061,26.495,107.613,27.191z"/>
	<path fill-rule="evenodd" clip-rule="evenodd" fill="#FF7C43" d="M115.129,42.809c-0.645,0.508-1.583,0.399-2.095-0.245
		s-0.402-1.586,0.242-2.094c0.647-0.515,1.583-0.403,2.098,0.242C115.885,41.355,115.777,42.294,115.129,42.809z"/>
	<path fill-rule="evenodd" clip-rule="evenodd" fill="#FF7C43" d="M118.256,57.97c-0.753,0.327-1.632-0.014-1.965-0.767
		c-0.332-0.753,0.008-1.636,0.761-1.966c0.756-0.335,1.635,0.008,1.968,0.762C119.353,56.751,119.013,57.63,118.256,57.97z"/>
	<path fill-rule="evenodd" clip-rule="evenodd" fill="#FF7C43" d="M116.285,74.491c-0.812,0.095-1.555-0.487-1.653-1.306
		c-0.098-0.819,0.483-1.562,1.3-1.66c0.823-0.098,1.565,0.483,1.664,1.303C117.693,73.644,117.108,74.386,116.285,74.491z"/>
	<path fill-rule="evenodd" clip-rule="evenodd" fill="#FF7C43" d="M110.25,89.324c-0.816-0.13-1.369-0.896-1.24-1.709
		c0.13-0.812,0.894-1.37,1.706-1.236c0.816,0.129,1.373,0.893,1.239,1.705C111.827,88.896,111.063,89.454,110.25,89.324z"/>
	<path fill-rule="evenodd" clip-rule="evenodd" fill="#FF7C43" d="M99.936,100.961c-0.739-0.371-1.037-1.261-0.673-1.999
		c0.368-0.736,1.262-1.041,2-0.677c0.743,0.368,1.04,1.265,0.673,2.004C101.568,101.029,100.678,101.33,99.936,100.961z"/>
	<path fill-rule="evenodd" clip-rule="evenodd" fill="#FF7C43" d="M86.715,111.458c-0.609-0.55-0.658-1.492-0.108-2.105
		c0.553-0.612,1.496-0.665,2.108-0.111c0.613,0.55,0.662,1.495,0.112,2.108C88.273,111.962,87.331,112.011,86.715,111.458z"/>
	<path fill-rule="evenodd" clip-rule="evenodd" fill="#FF7C43" d="M70.11,116.431c-0.403-0.718-0.144-1.628,0.571-2.031
		c0.718-0.406,1.629-0.15,2.032,0.567c0.406,0.718,0.15,1.629-0.567,2.031C71.431,117.402,70.52,117.153,70.11,116.431z"/>
	<path fill-rule="evenodd" clip-rule="evenodd" fill="#FF7C43" d="M54.646,117.135c-0.203-0.795,0.27-1.607,1.066-1.817
		c0.795-0.214,1.615,0.263,1.825,1.058c0.21,0.799-0.268,1.614-1.064,1.825C55.677,118.411,54.863,117.937,54.646,117.135z"/>
	<path fill-rule="evenodd" clip-rule="evenodd" fill="#FF7C43" d="M38.642,112.596c0.035-0.819,0.725-1.46,1.548-1.429
		c0.823,0.031,1.467,0.725,1.436,1.545c-0.033,0.83-0.725,1.467-1.548,1.436C39.251,114.117,38.614,113.423,38.642,112.596z"/>
	<path fill-rule="evenodd" clip-rule="evenodd" fill="#FF7C43" d="M25.747,105.634c0.235-0.788,1.07-1.233,1.858-0.998
		c0.79,0.241,1.236,1.071,1,1.859c-0.238,0.791-1.072,1.236-1.861,0.998C25.957,107.259,25.508,106.425,25.747,105.634z"/>
	<path fill-rule="evenodd" clip-rule="evenodd" fill="#FF7C43" d="M14.175,92.728c0.476-0.669,1.408-0.823,2.08-0.347
		c0.669,0.477,0.828,1.411,0.35,2.077c-0.476,0.676-1.408,0.83-2.08,0.356C13.853,94.339,13.695,93.404,14.175,92.728z"/>
	<path fill-rule="evenodd" clip-rule="evenodd" fill="#FF7C43" d="M6.946,79.041c0.63-0.525,1.569-0.441,2.098,0.189
		c0.533,0.63,0.449,1.576-0.182,2.102c-0.634,0.532-1.573,0.445-2.102-0.182C6.229,80.515,6.312,79.577,6.946,79.041z"/>
	<path fill-rule="evenodd" clip-rule="evenodd" fill="#FF7C43" d="M4.23,62.625c0.758-0.318,1.632,0.035,1.954,0.795
		c0.32,0.757-0.03,1.636-0.786,1.955c-0.76,0.326-1.636-0.028-1.958-0.785C3.117,63.831,3.469,62.955,4.23,62.625z"/>
	<path fill-rule="evenodd" clip-rule="evenodd" fill="#FF7C43" d="M5.896,46.696c0.818-0.102,1.562,0.48,1.664,1.296
		c0.105,0.816-0.475,1.565-1.291,1.667c-0.823,0.103-1.567-0.478-1.67-1.296C4.497,47.547,5.076,46.801,5.896,46.696z"/>
	<path fill-rule="evenodd" clip-rule="evenodd" fill="#FF7C43" d="M12.441,31.244c0.812,0.149,1.347,0.92,1.201,1.73
		c-0.145,0.812-0.921,1.352-1.73,1.208c-0.816-0.147-1.352-0.921-1.205-1.735C10.855,31.635,11.629,31.096,12.441,31.244z"/>
	<path fill-rule="evenodd" clip-rule="evenodd" fill="#FF7C43" d="M22.325,18.88c0.739,0.356,1.049,1.25,0.694,1.992
		c-0.363,0.742-1.254,1.052-1.993,0.696c-0.746-0.357-1.052-1.253-0.695-1.995C20.686,18.833,21.579,18.52,22.325,18.88z"/>
	<path fill-rule="evenodd" clip-rule="evenodd" fill="#FF7C43" d="M36.888,9.477c0.583,0.576,0.593,1.521,0.016,2.109
		c-0.576,0.587-1.522,0.599-2.106,0.023c-0.592-0.581-0.601-1.523-0.025-2.111C35.35,8.909,36.292,8.896,36.888,9.477z"/>
	<path fill-rule="evenodd" clip-rule="evenodd" fill="#FF7C43" d="M51.541,4.488c0.419,0.705,0.189,1.622-0.517,2.042
		c-0.706,0.426-1.623,0.199-2.045-0.509c-0.428-0.709-0.196-1.625,0.509-2.048C50.196,3.55,51.109,3.779,51.541,4.488z"/>
	<path fill-rule="evenodd" clip-rule="evenodd" fill="#FF7C43" d="M68.177,4.384c0.196,0.799-0.291,1.608-1.089,1.808
		c-0.802,0.197-1.611-0.288-1.807-1.088c-0.203-0.8,0.284-1.608,1.082-1.807C67.162,3.098,67.971,3.584,68.177,4.384z"/>
</g>
</svg>
